HIERARCHY
ROOT hip
{
  OFFSET 0 0 0
  CHANNELS 6 Xposition Yposition Zposition Zrotation Yrotation Xrotation
  JOINT abdomen
  {
    OFFSET 0 20.6881 -0.73152
    CHANNELS 3 Zrotation Xrotation Yrotation
    JOINT chest
    {
      OFFSET 0 11.7043 -0.48768
      CHANNELS 3 Zrotation Xrotation Yrotation
      JOINT neck
      {
        OFFSET 0 22.1894 -2.19456
        CHANNELS 3 Zrotation Xrotation Yrotation
        JOINT head
        {
          OFFSET -0.24384 7.07133 1.2192
          CHANNELS 3 Zrotation Xrotation Yrotation
          JOINT leftEye
          {
            OFFSET 4.14528 8.04674 8.04672
            CHANNELS 3 Zrotation Xrotation Yrotation
            End Site
            {
              OFFSET 1 0 0
            }
          }
          JOINT rightEye
          {
            OFFSET -3.6576 8.04674 8.04672
            CHANNELS 3 Zrotation Xrotation Yrotation
            End Site
            {
              OFFSET 1 0 0
            }
          }
        }
      }
      JOINT rCollar
      {
        OFFSET -2.68224 19.2634 -4.8768
        CHANNELS 3 Zrotation Xrotation Yrotation
        JOINT rShldr
        {
          OFFSET -8.77824 -1.95073 1.46304
          CHANNELS 3 Zrotation Xrotation Yrotation
          JOINT rForeArm
          {
            OFFSET -28.1742 -1.7115 0.48768
            CHANNELS 3 Zrotation Xrotation Yrotation
            JOINT rHand
            {
              OFFSET -22.5879 0.773209 7.07136
              CHANNELS 3 Zrotation Xrotation Yrotation
              JOINT rThumb1
              {
                OFFSET -1.2192 -0.487915 3.41376
                CHANNELS 3 Zrotation Xrotation Yrotation
                JOINT rThumb2
                {
                  OFFSET -3.37035 -0.52449 3.41376
                  CHANNELS 3 Zrotation Xrotation Yrotation
                  End Site
                  {
                    OFFSET -1.78271 -1.18214 1.43049
                  }
                }
              }
              JOINT rIndex1
              {
                OFFSET -7.75947 0.938293 5.60832
                CHANNELS 3 Zrotation Xrotation Yrotation
                JOINT rIndex2
                {
                  OFFSET -2.54057 -0.884171 1.56538
                  CHANNELS 3 Zrotation Xrotation Yrotation
                  End Site
                  {
                    OFFSET -1.62519 -0.234802 1.16502
                  }
                }
              }
              JOINT rMid1
              {
                OFFSET -8.24714 1.18213 3.41376
                CHANNELS 3 Zrotation Xrotation Yrotation
                JOINT rMid2
                {
                  OFFSET -3.10165 -0.590103 1.0647
                  CHANNELS 3 Zrotation Xrotation Yrotation
                  End Site
                  {
                    OFFSET -2.48547 -0.328903 0.83742
                  }
                }
              }
              JOINT rRing1
              {
                OFFSET -8.82822 0.546677 1.51678
                CHANNELS 3 Zrotation Xrotation Yrotation
                JOINT rRing2
                {
                  OFFSET -2.60934 -0.819778 -0.0198488
                  CHANNELS 3 Zrotation Xrotation Yrotation
                  End Site
                  {
                    OFFSET -2.33842 -0.294052 0.168128
                  }
                }
              }
              JOINT rPinky1
              {
                OFFSET -8.27202 -0.0477905 -0.4584
                CHANNELS 3 Zrotation Xrotation Yrotation
                JOINT rPinky2
                {
                  OFFSET -1.82734 -0.647385 -0.700984
                  CHANNELS 3 Zrotation Xrotation Yrotation
                  End Site
                  {
                    OFFSET -1.69225 -0.51767 -0.607171
                  }
                }
              }
            }
          }
        }
      }
      JOINT lCollar
      {
        OFFSET 2.68224 19.2634 -4.8768
        CHANNELS 3 Zrotation Xrotation Yrotation
        JOINT lShldr
        {
          OFFSET 8.77824 -1.95073 1.46304
          CHANNELS 3 Zrotation Xrotation Yrotation
          JOINT lForeArm
          {
            OFFSET 28.1742 -1.7115 0.48768
            CHANNELS 3 Zrotation Xrotation Yrotation
            JOINT lHand
            {
              OFFSET 22.5879 0.773209 7.07136
              CHANNELS 3 Zrotation Xrotation Yrotation
              JOINT lThumb1
              {
                OFFSET 1.2192 -0.487915 3.41376
                CHANNELS 3 Zrotation Xrotation Yrotation
                JOINT lThumb2
                {
                  OFFSET 3.37035 -0.52449 3.41376
                  CHANNELS 3 Zrotation Xrotation Yrotation
                  End Site
                  {
                    OFFSET 1.78271 -1.18214 1.43049
                  }
                }
              }
              JOINT lIndex1
              {
                OFFSET 7.75947 0.938293 5.60832
                CHANNELS 3 Zrotation Xrotation Yrotation
                JOINT lIndex2
                {
                  OFFSET 2.54057 -0.884171 1.56538
                  CHANNELS 3 Zrotation Xrotation Yrotation
                  End Site
                  {
                    OFFSET 1.62519 -0.234802 1.16502
                  }
                }
              }
              JOINT lMid1
              {
                OFFSET 8.24714 1.18213 3.41376
                CHANNELS 3 Zrotation Xrotation Yrotation
                JOINT lMid2
                {
                  OFFSET 3.10165 -0.590103 1.0647
                  CHANNELS 3 Zrotation Xrotation Yrotation
                  End Site
                  {
                    OFFSET 2.48547 -0.328903 0.83742
                  }
                }
              }
              JOINT lRing1
              {
                OFFSET 8.82822 0.546677 1.51678
                CHANNELS 3 Zrotation Xrotation Yrotation
                JOINT lRing2
                {
                  OFFSET 2.60934 -0.819778 -0.0198488
                  CHANNELS 3 Zrotation Xrotation Yrotation
                  End Site
                  {
                    OFFSET 2.33842 -0.294052 0.168128
                  }
                }
              }
              JOINT lPinky1
              {
                OFFSET 8.27202 -0.0477905 -0.4584
                CHANNELS 3 Zrotation Xrotation Yrotation
                JOINT lPinky2
                {
                  OFFSET 1.82734 -0.647385 -0.700984
                  CHANNELS 3 Zrotation Xrotation Yrotation
                  End Site
                  {
                    OFFSET 1.69225 -0.51767 -0.607171
                  }
                }
              }
            }
          }
        }
      }
    }
  }
  JOINT rButtock
  {
    OFFSET -8.77824 4.35084 1.2192
    CHANNELS 3 Zrotation Xrotation Yrotation
    JOINT rThigh
    {
      OFFSET 0 -1.70687 -2.19456
      CHANNELS 3 Zrotation Xrotation Yrotation
      JOINT rShin
      {
        OFFSET 0 -36.8199 0.73152
        CHANNELS 3 Zrotation Xrotation Yrotation
        JOINT rFoot
        {
          OFFSET 0.73152 -45.1104 -5.12064
          CHANNELS 3 Zrotation Xrotation Yrotation
          End Site
          {
            OFFSET -1.1221 -3.69964 12.103
          }
        }
      }
    }
  }
  JOINT lButtock
  {
    OFFSET 8.77824 4.35084 1.2192
    CHANNELS 3 Zrotation Xrotation Yrotation
    JOINT lThigh
    {
      OFFSET 0 -1.70687 -2.19456
      CHANNELS 3 Zrotation Xrotation Yrotation
      JOINT lShin
      {
        OFFSET 0 -36.8199 0.73152
        CHANNELS 3 Zrotation Xrotation Yrotation
        JOINT lFoot
        {
          OFFSET -0.73152 -45.1104 -5.12064
          CHANNELS 3 Zrotation Xrotation Yrotation
          End Site
          {
            OFFSET 1.1221 -3.69964 12.103
          }
        }
      }
    }
  }
}
MOTION
Frames:	4
Frame Time:	0.03333
0.1180000021122396 69.72659826278687 1.3280999846756458 -366.17198751798963 -26.859399599731447 -363.99700939944745 1.7714099881296301 11.016799725548964 12.297799996837563 -1.402160036480103 -6.244030019405073 3.332900088534442 -3.4274700340087922 13.608999949541374 1.8475900761505442 5.771360011385857 -17.705800347681087 4.636379793042022 -0.0 0.0 0.0 -0.0 0.0 0.0 -7.0870998694275145e-15 1.0764700543199769e-13 -1.0008800126875895e-13 38.9464011757622 50.96840154900923 35.73340164301275 -28.433300580744994 -35.72979871822556 76.55760282162446 -3.703340093925138 46.67719859916532 8.570109851634507 -8.784180159683185e-10 -4.134040049631404e-09 -7.20701018297074e-10 -1.5384399647869295e-09 -7.104169630938629e-09 -1.2098000082300024e-09 -8.784229855850083e-10 -4.134040049631404e-09 -7.207139889966343e-10 7.730910121524428 5.474879855648998 0.41731399283890674 -8.784209977383324e-10 -4.134040049631404e-09 -7.207069818371017e-10 2.90554006136521 0.9651829962377875 0.10290200252939893 -8.784099651892811e-10 -4.134040049631404e-09 -7.207069818371017e-10 10.278599710243157 0.7318009818271524 0.025912300303053633 -8.784209977383324e-10 -4.134040049631404e-09 -7.207040000670878e-10 2.221669932038622 -0.7334870246959406 -0.20891999872313852 -7.027009638813993e-15 1.0763699582806929e-13 -1.0023699877305319e-13 -84.16510167013051 18.76669948051332 -36.55480019259848 23.503799377490466 -18.197799364164617 -48.07579936003591 5.335970029630218 -52.888599951131596 10.704899990873978 -3.309920015919528e-10 -3.215839953884341e-09 -1.2814599924423852e-09 -5.164990212482345e-10 -4.508699849443761e-09 -2.221989967469333e-09 -3.309960021333881e-10 -3.215839953884341e-09 -1.2814499538166717e-09 -7.730910121524428 5.474879855648998 -0.41731399283890674 -3.309920015919528e-10 -3.2158500919023876e-09 -1.2814599924423852e-09 -2.90554006136521 0.9651829962377875 -0.10290200252939893 -3.30996996056726e-10 -3.215839953884341e-09 -1.2814700310680985e-09 -10.278599710243157 0.7318009818271524 -0.025912300303053633 -3.309899888971934e-10 -3.215830014650961e-09 -1.2814599924423852e-09 -2.221669932038622 -0.7334870246959406 0.20891999872313852 -2.0321699793705798e-16 0.0 -3.882510030490358e-19 -2.0400400475257623 -20.3108003461781 -16.012000518429844 -1.593610025472149 67.75639864206444 2.5879200432603384 -18.584099495694907 -13.692499865918426 -38.34020139635606 2.0321699793705798e-16 0.0 3.882510030490358e-19 30.568299894527797 -46.287399703232694 16.66409916905847 0.3690319992458948 35.21159909608586 0.4918579837493383 -2.832159924017178 28.364800613558934 7.2774598389428045
0.1887999998871237 69.5933997631073 2.5148999877274036 -366.0730044165378 -27.13630059132564 -364.0120084948648 1.7111999496052637 10.9250002755567 11.89860019928606 -1.0751399705300013 -6.3540400343850605 3.22591990278159 -3.2096100513738346 13.548800369744173 2.0546099082424574 5.516220002487324 -17.845699697355876 5.003309934972978 -0.0 0.0 0.0 -0.0 0.0 0.0 1.4554599873408775e-13 9.554839716373641e-14 -1.4677499610369701e-13 40.37030095731851 52.19909918460798 34.92860045311014 -28.37970067123332 -34.095600827219144 73.91970180189549 -3.9092101063589615 47.485401223274586 8.83759969632607 -8.019389944518496e-10 -3.924649822454593e-09 -5.654860238444694e-10 -1.4017799784728147e-09 -6.757500302600491e-09 -9.442050065690452e-10 -8.019409822985255e-10 -3.924649822454593e-09 -5.654960127740159e-10 7.730910121524428 5.474879855648998 0.41731399283890674 -8.019350187584977e-10 -3.924639883221214e-09 -5.654909934611592e-10 2.90554006136521 0.9651829962377875 0.10290200252939893 -8.01930993368979e-10 -3.924649822454593e-09 -5.654939752311731e-10 10.278599710243157 0.7318009818271524 0.025912300303053633 -8.019419762218635e-10 -3.924649822454593e-09 -5.654919873844971e-10 2.221669932038622 -0.7334870246959406 -0.20891999872313852 1.4560500079942572e-13 9.554029848419434e-14 -1.4698300173975587e-13 -83.96719693892939 18.0257007951951 -37.953001387402615 23.84799993052409 -18.814099285805916 -49.14159915359762 5.355819840018744 -52.94640042698283 10.72910020487698 -5.126539791191797e-10 -7.316950329405879e-09 -5.503619893724414e-10 -8.585319953918031e-10 -1.2772900069564517e-08 -9.691209749819612e-10 -5.126529851958417e-10 -7.316939992603164e-09 -5.503590076024275e-10 -7.730910121524428 5.474879855648998 -0.41731399283890674 -5.126519912725037e-10 -7.316939992603164e-09 -5.503639772191173e-10 -2.90554006136521 0.9651829962377875 -0.10290200252939893 -5.126589984320363e-10 -7.316939992603164e-09 -5.503639772191173e-10 -10.278599710243157 0.7318009818271524 -0.025912300303053633 -5.126529851958417e-10 -7.316939992603164e-09 -5.503670086852981e-10 -2.221669932038622 -0.7334870246959406 0.20891999872313852 -2.0321699793705798e-16 0.0 -3.882510030490358e-19 -2.3773500069038995 -19.199600285203314 -15.601700809703424 -1.5402299626743836 67.45000318608685 2.6008399864056524 -19.02809935778617 -14.581499359040714 -38.21610027423151 2.0321699793705798e-16 0.0 3.882510030490358e-19 31.230500394938872 -46.49219951040094 19.160999471108987 0.40883599385120195 37.43569993513878 0.3808530023063506 -1.7325499470119599 25.810600147013893 5.213719888770744
0.20760000043082982 69.58240270614624 3.5682999528944492 -366.16100457380423 -26.72059991051303 -363.9620115101403 1.8014899277909546 10.939599804907603 11.263500181954301 -0.6508080116797594 -6.455269841186996 3.0648499548875265 -3.0302699877802213 13.486999964360253 2.178299938356334 5.309190138555067 -18.282200011738464 5.2341498383518985 -0.0 0.0 0.0 -0.0 0.0 0.0 2.769439986259064e-13 6.580040026691737e-14 -1.1912200324266619e-13 41.19069888419084 53.53109877088177 34.52059910303943 -28.263700153464406 -32.53199977147397 71.31229757681064 -4.309609882770272 49.24699921777467 9.386199636687847 -5.626689966238638e-10 -2.809969967336784e-09 -2.4682100736303194e-10 -9.742640312942215e-10 -4.786840151476416e-09 -4.031649993352222e-10 -5.626670087771879e-10 -2.809969967336784e-09 -2.4682699575114314e-10 7.730910121524428 5.474879855648998 0.41731399283890674 -5.626590076943173e-10 -2.8099399508519777e-09 -2.468239891330458e-10 2.90554006136521 0.9651829962377875 0.10290200252939893 -5.626609955409933e-10 -2.809969967336784e-09 -2.4682900844590247e-10 10.278599710243157 0.7318009818271524 0.025912300303053633 -5.626740159367205e-10 -2.809969967336784e-09 -2.4682699575114314e-10 2.221669932038622 -0.7334870246959406 -0.20891999872313852 2.769869974578122e-13 6.579560172345835e-14 -1.1936999876302566e-13 -83.77959896318582 17.511300465781222 -39.58079939115674 24.12929956394377 -19.34059929533447 -50.021098707358064 5.509649787392594 -53.433799311060355 10.92190022344716 -5.787540058751958e-10 2.9432799350403135e-09 4.5193798538871147e-10 -1.0146699967522016e-09 3.960999984339705e-09 7.548560010979726e-10 -5.787479926390012e-10 2.94330001229174e-09 4.519350036186976e-10 -7.730910121524428 5.474879855648998 -0.41731399283890674 -5.787499804856771e-10 2.94330001229174e-09 4.519350036186976e-10 -2.90554006136521 0.9651829962377875 -0.10290200252939893 -5.787569876452097e-10 2.94330001229174e-09 4.5193798538871147e-10 -10.278599710243157 0.7318009818271524 -0.025912300303053633 -5.78751024105182e-10 2.94330001229174e-09 4.51927996459165e-10 -2.221669932038622 -0.7334870246959406 0.20891999872313852 -2.0321699793705798e-16 0.0 -3.882510030490358e-19 -2.44830990940822 -18.12690029303259 -15.441500430268068 -1.4699799729569216 67.00490024844461 2.608850090754785 -19.479600475133402 -15.491400084796888 -38.13650124964418 2.0321699793705798e-16 0.0 3.882510030490358e-19 31.961999994668897 -47.20489901444051 21.768499318842224 0.46159501636259853 39.88879994158929 0.2665209983660527 -1.073769983992885 23.592499629146836 3.8941602114096616
0.18270000000484288 69.56279873847961 4.527899995446205 -366.7670062777245 -25.774299399122565 -363.6420034871469 2.561310053140792 11.052700053600198 10.40100011526437 -0.3020179984107114 -6.493399799115416 2.8570800826473812 -2.8121999768282855 13.359300186316755 2.238039974488439 5.055049898596294 -18.90360037714247 5.341589994656669 -0.0 0.0 0.0 -0.0 0.0 0.0 2.5814899566167633e-13 -1.3899099424342762e-14 2.6443599755697345e-13 40.62749856070451 55.94920088802514 35.16549873428286 -28.026499636420912 -30.741598869243944 68.39519891437905 -6.083319937102904 55.30570144556156 11.655099686506873 -7.121399838659956e-11 5.566780243119921e-10 5.200109996667399e-10 -8.944250270857044e-11 1.2673999529036405e-09 8.988980051315973e-10 -7.121260068190555e-11 5.566769806924873e-10 5.200049864305452e-10 7.730910121524428 5.474879855648998 0.41731399283890674 -7.120909710213925e-11 5.566909950115524e-10 5.200059803538832e-10 2.90554006136521 0.9651829962377875 0.10290200252939893 -7.120689804675403e-11 5.566769806924873e-10 5.200049864305452e-10 10.278599710243157 0.7318009818271524 0.025912300303053633 -7.121989980641868e-11 5.566769806924873e-10 5.20009011820064e-10 2.221669932038622 -0.7334870246959406 -0.20891999872313852 2.5814300203217255e-13 -1.3900000288696318e-14 2.6423798939198975e-13 -83.6318004997359 17.202400037925518 -41.333501064262876 24.402100734488666 -19.868299710609655 -50.903600129258734 6.10195013183776 -55.18340007828331 11.65359960621041 -4.864919787136332e-10 5.350129982434868e-08 2.8132200966519045e-09 -9.613039667135943e-10 9.181230229557442e-08 4.822929905446983e-09 -4.864899908669572e-10 5.350129982434868e-08 2.8132200966519045e-09 -7.730910121524428 5.474879855648998 -0.41731399283890674 -4.864889969436193e-10 5.350129982434868e-08 2.8132099586338573e-09 -2.90554006136521 0.9651829962377875 -0.10290200252939893 -4.864979919498278e-10 5.350129982434868e-08 2.8132099586338573e-09 -10.278599710243157 0.7318009818271524 -0.025912300303053633 -4.864880030202814e-10 5.350129982434868e-08 2.8132099586338573e-09 -2.221669932038622 -0.7334870246959406 0.20891999872313852 -2.0321699793705798e-16 0.0 -3.882510030490358e-19 -1.7196199720263026 -17.006800495569276 -15.434299703335581 -1.3810000037096979 66.2977024617815 2.5858699192922767 -19.704499821481704 -15.976799430994891 -38.16560127060302 2.0321699793705798e-16 0.0 3.882510030490358e-19 32.96450101009752 -48.41070061051455 23.510199264742766 0.5128689796576198 42.05570136143793 0.16472500623451977 -0.848513973703861 22.30349949879286 3.509790035206725
